{
  "accessors": [
    {
      "bufferView": 2,
      "componentType": 5126,
      "count": 14430,
      "max": [
        1.4767948389053345,
        3.754887580871582,
        2.275386333465576
      ],
      "min": [
        -1.6353375911712646,
        -3.857926607131958,
        -2.2717175483703613
      ],
      "type": "VEC3"
    },
    {
      "bufferView": 2,
      "byteOffset": 173160,
      "componentType": 5126,
      "count": 14430,
      "max": [
        1.0,
        1.0,
        1.0
      ],
      "min": [
        -1.0,
        -1.0,
        -1.0
      ],
      "type": "VEC3"
    },
    {
      "bufferView": 3,
      "componentType": 5126,
      "count": 14430,
      "max": [
        0.9999998211860657,
        1.0,
        0.9999979138374329,
        1.0
      ],
      "min": [
        -0.9999992251396179,
        -0.9999994039535522,
        -0.9999951124191284,
        1.0
      ],
      "type": "VEC4"
    },
    {
      "bufferView": 1,
      "componentType": 5126,
      "count": 14430,
      "max": [
        0.9906359910964966,
        0.9915482997894287
      ],
      "min": [
        0.0,
        0.0
      ],
      "type": "VEC2"
    },
    {
      "bufferView": 0,
      "componentType": 5125,
      "count": 40875,
      "type": "SCALAR"
    },
    {
      "bufferView": 2,
      "byteOffset": 346320,
      "componentType": 5126,
      "count": 4305,
      "max": [
        1.404555082321167,
        3.2942774295806885,
        2.2507224082946777
      ],
      "min": [
        -1.045180320739746,
        -3.2747817039489746,
        -0.12242132425308228
      ],
      "type": "VEC3"
    },
    {
      "bufferView": 2,
      "byteOffset": 397980,
      "componentType": 5126,
      "count": 4305,
      "max": [
        0.9998534917831421,
        1.0,
        1.0
      ],
      "min": [
        -0.9998859763145447,
        -1.0,
        -0.9999997615814209
      ],
      "type": "VEC3"
    },
    {
      "bufferView": 3,
      "byteOffset": 230880,
      "componentType": 5126,
      "count": 4305,
      "max": [
        0.9999931454658508,
        0.9999995231628418,
        0.9998827576637268,
        1.0
      ],
      "min": [
        -0.8524466156959534,
        -0.9999998807907104,
        -0.8730743527412415,
        1.0
      ],
      "type": "VEC4"
    },
    {
      "bufferView": 1,
      "byteOffset": 115440,
      "componentType": 5126,
      "count": 4305,
      "max": [
        0.9858832955360413,
        0.9999998807907104
      ],
      "min": [
        0.06738461554050446,
        0.0
      ],
      "type": "VEC2"
    },
    {
      "bufferView": 0,
      "byteOffset": 163500,
      "componentType": 5125,
      "count": 12690,
      "type": "SCALAR"
    },
    {
      "bufferView": 2,
      "byteOffset": 449640,
      "componentType": 5126,
      "count": 4236,
      "max": [
        0.08888627588748932,
        3.039588451385498,
        0.43380826711654663
      ],
      "min": [
        -0.807188093662262,
        -3.0334324836730957,
        -0.47947531938552856
      ],
      "type": "VEC3"
    },
    {
      "bufferView": 2,
      "byteOffset": 500472,
      "componentType": 5126,
      "count": 4236,
      "max": [
        1.0,
        1.0,
        0.9999492764472961
      ],
      "min": [
        -1.0,
        -1.0,
        -0.9999924898147583
      ],
      "type": "VEC3"
    },
    {
      "bufferView": 3,
      "byteOffset": 299760,
      "componentType": 5126,
      "count": 4236,
      "max": [
        0.9999997019767761,
        0.9999997615814209,
        0.9999833106994629,
        1.0
      ],
      "min": [
        -0.9999997615814209,
        -1.0,
        -0.9999832510948181,
        1.0
      ],
      "type": "VEC4"
    },
    {
      "bufferView": 1,
      "byteOffset": 149880,
      "componentType": 5126,
      "count": 4236,
      "max": [
        0.9796605110168457,
        0.9814701080322266
      ],
      "min": [
        0.0,
        0.0
      ],
      "type": "VEC2"
    },
    {
      "bufferView": 0,
      "byteOffset": 214260,
      "componentType": 5125,
      "count": 11808,
      "type": "SCALAR"
    },
    {
      "bufferView": 2,
      "byteOffset": 551304,
      "componentType": 5126,
      "count": 1728,
      "max": [
        0.03235851228237152,
        2.980215072631836,
        0.3242512345314026
      ],
      "min": [
        -0.8306623101234436,
        -2.9681320190429688,
        -0.40324217081069946
      ],
      "type": "VEC3"
    },
    {
      "bufferView": 2,
      "byteOffset": 572040,
      "componentType": 5126,
      "count": 1728,
      "max": [
        0.923880398273468,
        0.9577043652534485,
        1.0
      ],
      "min": [
        -1.0,
        -0.9577017426490784,
        -0.9520531892776489
      ],
      "type": "VEC3"
    },
    {
      "bufferView": 1,
      "byteOffset": 183768,
      "componentType": 5126,
      "count": 1728,
      "max": [
        0.9734631180763245,
        0.9752206802368164
      ],
      "min": [
        0.02389901876449585,
        0.14181041717529297
      ],
      "type": "VEC2"
    },
    {
      "bufferView": 0,
      "byteOffset": 261492,
      "componentType": 5125,
      "count": 2736,
      "type": "SCALAR"
    }
  ],
  "asset": {
    "extras": {
      "author": "azizcharfeddine1997 (https://sketchfab.com/azizcharfeddine1997)",
      "license": "CC-BY-4.0 (http://creativecommons.org/licenses/by/4.0/)",
      "source": "https://sketchfab.com/3d-models/waiting-chair-banch-f64ddfc64db94f54a5e853a8d0c5feb8",
      "title": "waiting chair banch"
    },
    "generator": "Sketchfab-12.78.0",
    "version": "2.0"
  },
  "bufferViews": [
    {
      "buffer": 0,
      "byteLength": 272436,
      "name": "floatBufferViews",
      "target": 34963
    },
    {
      "buffer": 0,
      "byteLength": 197592,
      "byteOffset": 272436,
      "byteStride": 8,
      "name": "floatBufferViews",
      "target": 34962
    },
    {
      "buffer": 0,
      "byteLength": 592776,
      "byteOffset": 470028,
      "byteStride": 12,
      "name": "floatBufferViews",
      "target": 34962
    },
    {
      "buffer": 0,
      "byteLength": 367536,
      "byteOffset": 1062804,
      "byteStride": 16,
      "name": "floatBufferViews",
      "target": 34962
    }
  ],
  "buffers": [
    {
      "byteLength": 1430340,
      "uri": "scene.bin"
    }
  ],
  "images": [
    {
      "uri": "textures/alluminum_baseColor.png"
    },
    {
      "uri": "textures/alluminum_metallicRoughness.png"
    },
    {
      "uri": "textures/alluminum_normal.png"
    },
    {
      "uri": "textures/chairColor_baseColor.png"
    },
    {
      "uri": "textures/chairColor_metallicRoughness.png"
    },
    {
      "uri": "textures/chairColor_normal.png"
    },
    {
      "uri": "textures/Metal_baseColor.png"
    },
    {
      "uri": "textures/Metal_metallicRoughness.png"
    },
    {
      "uri": "textures/Metal_normal.png"
    }
  ],
  "materials": [
    {
      "doubleSided": true,
      "name": "alluminum",
      "normalTexture": {
        "index": 2
      },
      "pbrMetallicRoughness": {
        "baseColorTexture": {
          "index": 0
        },
        "metallicRoughnessTexture": {
          "index": 1
        }
      }
    },
    {
      "doubleSided": true,
      "name": "chairColor",
      "normalTexture": {
        "index": 5
      },
      "pbrMetallicRoughness": {
        "baseColorTexture": {
          "index": 3
        },
        "metallicRoughnessTexture": {
          "index": 4
        }
      }
    },
    {
      "doubleSided": true,
      "name": "Metal",
      "normalTexture": {
        "index": 8
      },
      "pbrMetallicRoughness": {
        "baseColorTexture": {
          "index": 6
        },
        "metallicRoughnessTexture": {
          "index": 7
        }
      }
    },
    {
      "doubleSided": true,
      "name": "screw",
      "pbrMetallicRoughness": {
        "baseColorFactor": [
          0.5343165598994581,
          0.5343165598994581,
          0.5343165598994581,
          1.0
        ],
        "metallicFactor": 0.2747903128505293,
        "roughnessFactor": 0.08664013259051788
      }
    }
  ],
  "meshes": [
    {
      "name": "waiting chair_alluminum_0",
      "primitives": [
        {
          "attributes": {
            "NORMAL": 1,
            "POSITION": 0,
            "TANGENT": 2,
            "TEXCOORD_0": 3
          },
          "indices": 4,
          "material": 0,
          "mode": 4
        }
      ]
    },
    {
      "name": "waiting chair_chairColor_0",
      "primitives": [
        {
          "attributes": {
            "NORMAL": 6,
            "POSITION": 5,
            "TANGENT": 7,
            "TEXCOORD_0": 8
          },
          "indices": 9,
          "material": 1,
          "mode": 4
        }
      ]
    },
    {
      "name": "waiting chair_Metal_0",
      "primitives": [
        {
          "attributes": {
            "NORMAL": 11,
            "POSITION": 10,
            "TANGENT": 12,
            "TEXCOORD_0": 13
          },
          "indices": 14,
          "material": 2,
          "mode": 4
        }
      ]
    },
    {
      "name": "waiting chair_screw_0",
      "primitives": [
        {
          "attributes": {
            "NORMAL": 16,
            "POSITION": 15,
            "TEXCOORD_0": 17
          },
          "indices": 18,
          "material": 3,
          "mode": 4
        }
      ]
    }
  ],
  "nodes": [
    {
      "children": [
        1
      ],
      "matrix": [
        1.0,
        0.0,
        0.0,
        0.0,
        0.0,
        2.220446049250313e-16,
        -1.0,
        0.0,
        0.0,
        1.0,
        2.220446049250313e-16,
        0.0,
        0.0,
        0.0,
        0.0,
        1.0
      ],
      "name": "Sketchfab_model"
    },
    {
      "children": [
        2
      ],
      "matrix": [
        0.009999999776482582,
        0.0,
        0.0,
        0.0,
        0.0,
        0.0,
        0.009999999776482582,
        0.0,
        0.0,
        -0.009999999776482582,
        0.0,
        0.0,
        0.0,
        0.0,
        0.0,
        1.0
      ],
      "name": "c50fd7e31085453e855919d742f64b81.fbx"
    },
    {
      "children": [
        3
      ],
      "name": "RootNode"
    },
    {
      "children": [
        4,
        5,
        6,
        7
      ],
      "matrix": [
        100.0,
        0.0,
        0.0,
        0.0,
        -0.0,
        -1.629206793918314e-05,
        -99.99999999999868,
        0.0,
        0.0,
        99.99999999999868,
        -1.629206793918314e-05,
        0.0,
        -5.742345809936523,
        -69.102294921875,
        796.8681640625,
        1.0
      ],
      "name": "waiting chair"
    },
    {
      "mesh": 0,
      "name": "waiting chair_alluminum_0"
    },
    {
      "mesh": 1,
      "name": "waiting chair_chairColor_0"
    },
    {
      "mesh": 2,
      "name": "waiting chair_Metal_0"
    },
    {
      "mesh": 3,
      "name": "waiting chair_screw_0"
    }
  ],
  "samplers": [
    {
      "magFilter": 9729,
      "minFilter": 9987,
      "wrapS": 10497,
      "wrapT": 10497
    }
  ],
  "scene": 0,
  "scenes": [
    {
      "name": "Sketchfab_Scene",
      "nodes": [
        0
      ]
    }
  ],
  "textures": [
    {
      "sampler": 0,
      "source": 0
    },
    {
      "sampler": 0,
      "source": 1
    },
    {
      "sampler": 0,
      "source": 2
    },
    {
      "sampler": 0,
      "source": 3
    },
    {
      "sampler": 0,
      "source": 4
    },
    {
      "sampler": 0,
      "source": 5
    },
    {
      "sampler": 0,
      "source": 6
    },
    {
      "sampler": 0,
      "source": 7
    },
    {
      "sampler": 0,
      "source": 8
    }
  ]
}
